<svg width="96" height="96" viewBox="0 0 96 96" fill="none" xmlns="http://www.w3.org/2000/svg">
<circle cx="48" cy="48" r="47.5" stroke="#B4B4B4"/>
<g clip-path="url(#clip0_756_844)">
<path d="M48 41C51.314 41 54 43.686 54 47C54 50.314 51.314 53 48 53C44.686 53 42 50.314 42 47C42 43.686 44.686 41 48 41ZM62 54V60H34.47C34.322 59.834 34.164 59.678 34 59.53V34.47C34.166 34.322 34.322 34.164 34.47 34H61.528C62.626 35.228 64.222 36 65.998 36C69.312 36 71.998 33.314 71.998 30C71.998 26.686 69.312 24 65.998 24C63.386 24 61.164 25.67 60.34 28H35.658C34.834 25.67 32.612 24 30 24C26.686 24 24 26.686 24 30C24 32.612 25.67 34.834 28 35.658V58.344C25.67 59.168 24 61.39 24 64.002C24 67.316 26.686 70.002 30 70.002C32.612 70.002 34.834 68.332 35.658 66.002H62V72.002L70.414 64.416C71.194 63.636 71.194 62.368 70.414 61.588L62 54.002V54Z" fill="#FD9103"/>
</g>
<defs>
<clipPath id="clip0_756_844">
<rect width="48" height="48" fill="white" transform="translate(24 24)"/>
</clipPath>
</defs>
</svg>
