<svg width="96" height="96" viewBox="0 0 96 96" fill="none" xmlns="http://www.w3.org/2000/svg">
<path d="M48 72C61.2548 72 72 61.2548 72 48C72 34.7452 61.2548 24 48 24C34.7452 24 24 34.7452 24 48C24 61.2548 34.7452 72 48 72Z" fill="black"/>
<path d="M41.4862 37.7493C42.3675 37.7401 43.2473 37.8259 44.1102 38.0054C44.8343 38.1472 45.5238 38.4286 46.1404 38.8338C46.706 39.2216 47.1597 39.7513 47.456 40.3698C47.7839 41.1124 47.9407 41.9193 47.9147 42.7307C47.9521 43.6295 47.7126 44.5182 47.2284 45.2765C46.705 46.0031 45.9967 46.5765 45.1769 46.9369C46.2915 47.2105 47.2715 47.8739 47.9396 48.8071C48.4744 49.6827 48.7838 50.6771 48.8403 51.7015C48.8968 52.7259 48.6984 53.7483 48.2631 54.6773C47.8873 55.403 47.3422 56.0275 46.6738 56.4978C45.9793 56.9806 45.2037 57.3346 44.384 57.5431C43.5261 57.775 42.6416 57.8946 41.7529 57.8987H32V37.7778L41.4862 37.7493ZM40.9102 45.8773C41.605 45.906 42.2903 45.7075 42.8622 45.312C43.3707 44.9564 43.616 44.3271 43.616 43.4844C43.6318 43.0848 43.5475 42.6876 43.3707 42.3289C43.2128 42.0336 42.9766 41.7875 42.688 41.6178C42.3884 41.4394 42.0579 41.3188 41.7138 41.2622C41.3374 41.1927 40.9552 41.1594 40.5725 41.1627H36.4302V45.8631L40.9102 45.8773ZM41.1556 54.4427C41.5738 54.4465 41.9912 54.4036 42.4 54.3147C42.7722 54.2433 43.1264 54.0982 43.4418 53.888C43.7429 53.6861 43.9877 53.4108 44.1529 53.088C44.3441 52.6805 44.4344 52.2329 44.416 51.7831C44.416 50.7449 44.1244 50.0054 43.5449 49.5609C42.867 49.0951 42.0553 48.8641 41.2338 48.9031H36.4302V54.4427H41.1556Z" fill="white"/>
<path d="M55.1607 54.3752C55.7628 54.9631 56.6256 55.257 57.7492 55.257C58.4926 55.2747 59.2232 55.061 59.8398 54.6454C60.3289 54.3457 60.7042 53.8916 60.9065 53.3548H64.4301C63.8612 55.1077 63.0078 56.3592 61.831 57.113C60.5665 57.8984 59.0983 58.2929 57.6105 58.2472C56.5491 58.2615 55.4947 58.0746 54.503 57.6961C53.6152 57.3499 52.8133 56.8148 52.1527 56.1281C51.5004 55.4271 50.9973 54.6009 50.6736 53.6996C50.3161 52.7043 50.1391 51.6532 50.1509 50.5957C50.1431 49.5558 50.3251 48.5232 50.6878 47.5486C51.0253 46.6393 51.5443 45.8082 52.2132 45.1059C52.8845 44.4129 53.687 43.8605 54.5741 43.481C55.5346 43.0762 56.5683 42.8741 57.6105 42.8872C58.732 42.8572 59.8439 43.1013 60.8496 43.5983C61.7468 44.0564 62.5248 44.7175 63.1216 45.529C63.7238 46.3592 64.1585 47.2988 64.4016 48.2952C64.6672 49.3543 64.7608 50.4491 64.679 51.5379H54.1723C54.1723 52.7006 54.5598 53.8099 55.1607 54.3752ZM59.7581 46.7201C59.2852 46.1975 58.4781 45.9095 57.4967 45.9095C56.9474 45.8908 56.4014 46.0029 55.9039 46.2365C55.5149 46.4326 55.1701 46.7061 54.8905 47.0401C54.6429 47.3421 54.4601 47.6919 54.3536 48.0677C54.2582 48.3801 54.1974 48.702 54.1723 49.0277H60.6825C60.6335 48.1784 60.309 47.3683 59.7581 46.7201Z" fill="white"/>
<path d="M61.508 39.097H53.3516V41.0846H61.508V39.097Z" fill="white"/>
<circle cx="48" cy="48" r="47.5" stroke="#B4B4B4"/>
</svg>
