<svg width="23" height="23" viewBox="0 0 23 23" fill="none" xmlns="http://www.w3.org/2000/svg">
<path d="M11.5 22C5.70101 22 1 17.299 1 11.5C1 5.70101 5.70101 1 11.5 1C17.299 1 22 5.70101 22 11.5C22 17.299 17.299 22 11.5 22Z" stroke="#878A8F" stroke-width="2"/>
<path d="M12.0521 15.12C11.5121 15.12 11.0087 15.0333 10.5421 14.86C10.0821 14.68 9.68207 14.4267 9.34207 14.1C9.00207 13.7733 8.7354 13.39 8.54207 12.95C8.3554 12.51 8.26207 12.0267 8.26207 11.5C8.26207 10.9733 8.3554 10.49 8.54207 10.05C8.7354 9.61 9.00207 9.22667 9.34207 8.9C9.68874 8.57333 10.0921 8.32333 10.5521 8.15C11.0121 7.97 11.5154 7.88 12.0621 7.88C12.6687 7.88 13.2154 7.98667 13.7021 8.2C14.1954 8.40667 14.6087 8.71333 14.9421 9.12L13.9021 10.08C13.6621 9.80667 13.3954 9.60333 13.1021 9.47C12.8087 9.33 12.4887 9.26 12.1421 9.26C11.8154 9.26 11.5154 9.31333 11.2421 9.42C10.9687 9.52667 10.7321 9.68 10.5321 9.88C10.3321 10.08 10.1754 10.3167 10.0621 10.59C9.9554 10.8633 9.90207 11.1667 9.90207 11.5C9.90207 11.8333 9.9554 12.1367 10.0621 12.41C10.1754 12.6833 10.3321 12.92 10.5321 13.12C10.7321 13.32 10.9687 13.4733 11.2421 13.58C11.5154 13.6867 11.8154 13.74 12.1421 13.74C12.4887 13.74 12.8087 13.6733 13.1021 13.54C13.3954 13.4 13.6621 13.19 13.9021 12.91L14.9421 13.87C14.6087 14.2767 14.1954 14.5867 13.7021 14.8C13.2154 15.0133 12.6654 15.12 12.0521 15.12Z" fill="#878A8F"/>
</svg>
