<svg width="40" height="40" viewBox="0 0 42 42" fill="none" xmlns="http://www.w3.org/2000/svg">
<path d="M21 41C32.046 41 41 32.046 41 21C41 9.954 32.046 1 21 1C9.954 1 1 9.954 1 21C1 32.046 9.954 41 21 41Z" stroke="white" stroke-width="1.5" stroke-linecap="round" stroke-linejoin="round"/>
<path d="M28.3435 14.1429H13.8901C12.9398 14.1429 12.1694 14.9264 12.1694 15.8929V26.3929C12.1694 27.3594 12.9398 28.1429 13.8901 28.1429H28.3435C29.2938 28.1429 30.0642 27.3594 30.0642 26.3929V15.8929C30.0642 14.9264 29.2938 14.1429 28.3435 14.1429Z" stroke="white" stroke-width="1.5" stroke-linecap="round" stroke-linejoin="round"/>
<path d="M14.8193 17.7011L21.2725 23.3983L27.7257 17.7011" stroke="white" stroke-width="1.5" stroke-linecap="round" stroke-linejoin="round"/>
</svg>
