<svg width="96" height="96" viewBox="0 0 96 96" fill="none" xmlns="http://www.w3.org/2000/svg">
<path d="M48 72C61.2548 72 72 61.2548 72 48C72 34.7452 61.2548 24 48 24C34.7452 24 24 34.7452 24 48C24 61.2548 34.7452 72 48 72Z" fill="#010201"/>
<path d="M48.0007 35.6089C52.0362 35.6089 52.5127 35.6267 54.1056 35.6978C55.0646 35.7095 56.0146 35.885 56.9145 36.2169C57.5688 36.462 58.1611 36.848 58.6496 37.3476C59.1515 37.8355 59.5378 38.4296 59.7803 39.0863C60.1137 39.9845 60.2893 40.9335 60.2994 41.8916C60.374 43.4845 60.3883 43.9645 60.3883 48C60.3883 52.0356 60.3883 52.512 60.2994 54.1049C60.2893 55.063 60.1137 56.012 59.7803 56.9102C59.529 57.5619 59.1442 58.1537 58.6507 58.6478C58.1571 59.142 57.5658 59.5275 56.9145 59.7796C56.0146 60.1115 55.0646 60.287 54.1056 60.2987C52.5127 60.3698 52.0362 60.3876 48.0007 60.3876C43.9651 60.3876 43.4887 60.3698 41.8958 60.2987C40.9368 60.287 39.9868 60.1115 39.0869 59.7796C38.4356 59.5275 37.8442 59.142 37.3507 58.6478C36.8572 58.1537 36.4724 57.5619 36.2211 56.9102C35.8877 56.012 35.7121 55.063 35.702 54.1049C35.6274 52.512 35.6131 52.032 35.6131 48C35.6131 43.968 35.6131 43.4845 35.702 41.8916C35.7121 40.9335 35.8877 39.9845 36.2211 39.0863C36.4635 38.4296 36.8499 37.8355 37.3518 37.3476C37.8403 36.848 38.4326 36.462 39.0869 36.2169C39.9868 35.885 40.9368 35.7095 41.8958 35.6978C43.4887 35.6267 43.9651 35.6089 48.0007 35.6089ZM48.0007 32.8889C43.8976 32.8889 43.3785 32.8889 41.7714 32.9778C40.5169 33.006 39.2762 33.2465 38.102 33.6889C37.0978 34.0765 36.1858 34.67 35.4247 35.4311C34.6636 36.1923 34.0701 37.1043 33.6825 38.1085C33.2387 39.2811 32.9982 40.5208 32.9714 41.7743C32.8967 43.3885 32.8789 43.9076 32.8789 48.0071C32.8789 52.1067 32.8789 52.6294 32.9714 54.2365C32.9987 55.491 33.2392 56.7318 33.6825 57.9058C34.0709 58.9091 34.6647 59.8202 35.4257 60.5807C36.1868 61.3411 37.0984 61.9342 38.102 62.3218C39.2757 62.766 40.5167 63.0065 41.7714 63.0329C43.382 63.1076 43.9047 63.1254 48.0007 63.1254C52.0967 63.1254 52.6229 63.1076 54.23 63.0329C55.4847 63.0065 56.7257 62.766 57.8994 62.3218C58.903 61.9342 59.8146 61.3411 60.5756 60.5807C61.3367 59.8202 61.9305 58.9091 62.3189 57.9058C62.7622 56.7318 63.0026 55.491 63.03 54.2365C63.1047 52.6258 63.1225 52.1031 63.1225 48.0071C63.1225 43.9111 63.1225 43.3849 63.03 41.7743C63.0032 40.5208 62.7627 39.2811 62.3189 38.1085C61.9313 37.1043 61.3378 36.1923 60.5767 35.4311C59.8155 34.67 58.9036 34.0765 57.8994 33.6889C56.7252 33.2465 55.4845 33.006 54.23 32.9778C52.6194 32.9031 52.0967 32.8889 48.0007 32.8889Z" fill="white"/>
<path d="M48.0017 40.2382C46.4664 40.2375 44.9654 40.6921 43.6885 41.5445C42.4116 42.397 41.4162 43.609 40.8282 45.0272C40.2402 46.4454 40.086 48.0061 40.385 49.512C40.6841 51.0179 41.4231 52.4012 42.5084 53.4871C43.5938 54.5729 44.9768 55.3125 46.4825 55.6123C47.9883 55.9121 49.5491 55.7586 50.9676 55.1712C52.3861 54.5839 53.5985 53.589 54.4515 52.3125C55.3046 51.036 55.7599 49.5352 55.7599 47.9999C55.7604 46.9808 55.56 45.9716 55.1703 45.0299C54.7807 44.0882 54.2093 43.2325 53.4888 42.5117C52.7684 41.791 51.9129 41.2192 50.9714 40.8291C50.0299 40.439 49.0208 40.2382 48.0017 40.2382ZM48.0017 53.0382C47.005 53.0382 46.0308 52.7426 45.2022 52.1888C44.3736 51.6351 43.7278 50.848 43.3466 49.9272C42.9654 49.0063 42.8658 47.9931 43.0605 47.0157C43.2552 46.0383 43.7354 45.1406 44.4404 44.4361C45.1453 43.7317 46.0434 43.2521 47.0209 43.0581C47.9985 42.8641 49.0116 42.9644 49.9322 43.3463C50.8527 43.7281 51.6393 44.3744 52.1925 45.2034C52.7457 46.0324 53.0406 47.0069 53.0399 48.0035C53.038 49.3385 52.5064 50.6181 51.5617 51.5615C50.6171 52.5048 49.3366 53.0346 48.0017 53.0346V53.0382Z" fill="white"/>
<path d="M56.0692 41.7458C57.0707 41.7458 57.8825 40.9339 57.8825 39.9325C57.8825 38.931 57.0707 38.1191 56.0692 38.1191C55.0677 38.1191 54.2559 38.931 54.2559 39.9325C54.2559 40.9339 55.0677 41.7458 56.0692 41.7458Z" fill="white"/>
<circle cx="48" cy="48" r="47.5" stroke="#B4B4B4"/>
</svg>
