<svg width="146" height="62" viewBox="0 0 146 62" fill="none" xmlns="http://www.w3.org/2000/svg">
<path d="M0.254249 61.4286V1.22858H11.7782L37.4063 43.7126H31.3003L56.4983 1.22858H67.9363L68.1083 61.4286H55.0363L54.9503 21.2666H57.3583L37.2343 55.0646H30.9563L10.4022 21.2666H13.3263V61.4286H0.254249ZM84.971 61.4286V1.22858H112.319C118.855 1.22858 124.617 2.48992 129.605 5.01259C134.593 7.47792 138.492 10.9466 141.301 15.4186C144.11 19.8906 145.515 25.1939 145.515 31.3286C145.515 37.4059 144.11 42.7093 141.301 47.2386C138.492 51.7106 134.593 55.2079 129.605 57.7306C124.617 60.1959 118.855 61.4286 112.319 61.4286H84.971ZM98.903 49.9906H111.631C115.644 49.9906 119.113 49.2453 122.037 47.7546C125.018 46.2066 127.312 44.0279 128.917 41.2186C130.58 38.4093 131.411 35.1126 131.411 31.3286C131.411 27.4873 130.58 24.1906 128.917 21.4386C127.312 18.6293 125.018 16.4793 122.037 14.9886C119.113 13.4406 115.644 12.6666 111.631 12.6666H98.903V49.9906Z" fill="#6E07F3"/>
<rect y="26" width="146" height="15" fill="white"/>
<path d="M2.21672 37V30H3.55672L6.53672 34.94H5.82672L8.75672 30H10.0867L10.1067 37H8.58672L8.57672 32.33H8.85672L6.51672 36.26H5.78672L3.39672 32.33H3.73672V37H2.21672ZM11.3475 37L14.4675 30H16.0675L19.1975 37H17.4975L14.9375 30.82H15.5775L13.0075 37H11.3475ZM12.9075 35.5L13.3375 34.27H16.9375L17.3775 35.5H12.9075ZM21.8738 35.4L21.7838 33.53L25.1338 30H26.9338L23.9138 33.25L23.0138 34.21L21.8738 35.4ZM20.4238 37V30H22.0338V37H20.4238ZM25.2138 37L22.7238 33.95L23.7838 32.8L27.1038 37H25.2138ZM30.4796 37.12C29.9196 37.12 29.3829 37.0467 28.8696 36.9C28.3563 36.7467 27.9429 36.55 27.6296 36.31L28.1796 35.09C28.4796 35.3033 28.8329 35.48 29.2396 35.62C29.6529 35.7533 30.0696 35.82 30.4896 35.82C30.8096 35.82 31.0663 35.79 31.2596 35.73C31.4596 35.6633 31.6063 35.5733 31.6996 35.46C31.7929 35.3467 31.8396 35.2167 31.8396 35.07C31.8396 34.8833 31.7663 34.7367 31.6196 34.63C31.4729 34.5167 31.2796 34.4267 31.0396 34.36C30.7996 34.2867 30.5329 34.22 30.2396 34.16C29.9529 34.0933 29.6629 34.0133 29.3696 33.92C29.0829 33.8267 28.8196 33.7067 28.5796 33.56C28.3396 33.4133 28.1429 33.22 27.9896 32.98C27.8429 32.74 27.7696 32.4333 27.7696 32.06C27.7696 31.66 27.8763 31.2967 28.0896 30.97C28.3096 30.6367 28.6363 30.3733 29.0696 30.18C29.5096 29.98 30.0596 29.88 30.7196 29.88C31.1596 29.88 31.5929 29.9333 32.0196 30.04C32.4463 30.14 32.8229 30.2933 33.1496 30.5L32.6496 31.73C32.3229 31.5433 31.9963 31.4067 31.6696 31.32C31.3429 31.2267 31.0229 31.18 30.7096 31.18C30.3963 31.18 30.1396 31.2167 29.9396 31.29C29.7396 31.3633 29.5963 31.46 29.5096 31.58C29.4229 31.6933 29.3796 31.8267 29.3796 31.98C29.3796 32.16 29.4529 32.3067 29.5996 32.42C29.7463 32.5267 29.9396 32.6133 30.1796 32.68C30.4196 32.7467 30.6829 32.8133 30.9696 32.88C31.2629 32.9467 31.5529 33.0233 31.8396 33.11C32.1329 33.1967 32.3996 33.3133 32.6396 33.46C32.8796 33.6067 33.0729 33.8 33.2196 34.04C33.3729 34.28 33.4496 34.5833 33.4496 34.95C33.4496 35.3433 33.3396 35.7033 33.1196 36.03C32.8996 36.3567 32.5696 36.62 32.1296 36.82C31.6963 37.02 31.1463 37.12 30.4796 37.12ZM36.6501 37V34.14L37.0201 35.12L33.9401 30H35.6601L38.0201 33.93H37.0301L39.4001 30H40.9901L37.9101 35.12L38.2701 34.14V37H36.6501ZM42.1093 37V30H43.4493L46.4293 34.94H45.7193L48.6493 30H49.9793L49.9993 37H48.4793L48.4693 32.33H48.7493L46.4093 36.26H45.6793L43.2893 32.33H43.6293V37H42.1093ZM55.4921 37V30H58.6721C59.4321 30 60.1021 30.1467 60.6821 30.44C61.2621 30.7267 61.7154 31.13 62.0421 31.65C62.3688 32.17 62.5321 32.7867 62.5321 33.5C62.5321 34.2067 62.3688 34.8233 62.0421 35.35C61.7154 35.87 61.2621 36.2767 60.6821 36.57C60.1021 36.8567 59.4321 37 58.6721 37H55.4921ZM57.1121 35.67H58.5921C59.0588 35.67 59.4621 35.5833 59.8021 35.41C60.1488 35.23 60.4154 34.9767 60.6021 34.65C60.7954 34.3233 60.8921 33.94 60.8921 33.5C60.8921 33.0533 60.7954 32.67 60.6021 32.35C60.4154 32.0233 60.1488 31.7733 59.8021 31.6C59.4621 31.42 59.0588 31.33 58.5921 31.33H57.1121V35.67ZM64.2538 37V30H67.2838C67.9105 30 68.4505 30.1033 68.9038 30.31C69.3572 30.51 69.7072 30.8 69.9538 31.18C70.2005 31.56 70.3238 32.0133 70.3238 32.54C70.3238 33.06 70.2005 33.51 69.9538 33.89C69.7072 34.2633 69.3572 34.55 68.9038 34.75C68.4505 34.95 67.9105 35.05 67.2838 35.05H65.1538L65.8738 34.34V37H64.2538ZM68.7038 37L66.9538 34.46H68.6838L70.4538 37H68.7038ZM65.8738 34.52L65.1538 33.76H67.1938C67.6938 33.76 68.0672 33.6533 68.3138 33.44C68.5605 33.22 68.6838 32.92 68.6838 32.54C68.6838 32.1533 68.5605 31.8533 68.3138 31.64C68.0672 31.4267 67.6938 31.32 67.1938 31.32H65.1538L65.8738 30.55V34.52ZM71.1873 37L74.3073 30H75.9073L79.0373 37H77.3373L74.7773 30.82H75.4173L72.8473 37H71.1873ZM72.7473 35.5L73.1773 34.27H76.7773L77.2173 35.5H72.7473ZM80.2636 37V30H81.6036L84.5836 34.94H83.8736L86.8036 30H88.1336L88.1536 37H86.6336L86.6236 32.33H86.9036L84.5636 36.26H83.8336L81.4436 32.33H81.7836V37H80.2636ZM89.3944 37L92.5144 30H94.1144L97.2444 37H95.5444L92.9844 30.82H93.6244L91.0544 37H89.3944ZM90.9544 35.5L91.3844 34.27H94.9844L95.4244 35.5H90.9544ZM98.4706 37V30H101.501C102.127 30 102.667 30.1033 103.121 30.31C103.574 30.51 103.924 30.8 104.171 31.18C104.417 31.56 104.541 32.0133 104.541 32.54C104.541 33.06 104.417 33.51 104.171 33.89C103.924 34.2633 103.574 34.55 103.121 34.75C102.667 34.95 102.127 35.05 101.501 35.05H99.3706L100.091 34.34V37H98.4706ZM102.921 37L101.171 34.46H102.901L104.671 37H102.921ZM100.091 34.52L99.3706 33.76H101.411C101.911 33.76 102.284 33.6533 102.531 33.44C102.777 33.22 102.901 32.92 102.901 32.54C102.901 32.1533 102.777 31.8533 102.531 31.64C102.284 31.4267 101.911 31.32 101.411 31.32H99.3706L100.091 30.55V34.52ZM107.814 32.82H111.184V34.08H107.814V32.82ZM107.934 35.7H111.744V37H106.324V30H111.614V31.3H107.934V35.7ZM114.983 37V31.32H112.743V30H118.843V31.32H116.603V37H114.983ZM122.466 37.12C121.906 37.12 121.369 37.0467 120.856 36.9C120.343 36.7467 119.929 36.55 119.616 36.31L120.166 35.09C120.466 35.3033 120.819 35.48 121.226 35.62C121.639 35.7533 122.056 35.82 122.476 35.82C122.796 35.82 123.053 35.79 123.246 35.73C123.446 35.6633 123.593 35.5733 123.686 35.46C123.779 35.3467 123.826 35.2167 123.826 35.07C123.826 34.8833 123.753 34.7367 123.606 34.63C123.459 34.5167 123.266 34.4267 123.026 34.36C122.786 34.2867 122.519 34.22 122.226 34.16C121.939 34.0933 121.649 34.0133 121.356 33.92C121.069 33.8267 120.806 33.7067 120.566 33.56C120.326 33.4133 120.129 33.22 119.976 32.98C119.829 32.74 119.756 32.4333 119.756 32.06C119.756 31.66 119.863 31.2967 120.076 30.97C120.296 30.6367 120.623 30.3733 121.056 30.18C121.496 29.98 122.046 29.88 122.706 29.88C123.146 29.88 123.579 29.9333 124.006 30.04C124.433 30.14 124.809 30.2933 125.136 30.5L124.636 31.73C124.309 31.5433 123.983 31.4067 123.656 31.32C123.329 31.2267 123.009 31.18 122.696 31.18C122.383 31.18 122.126 31.2167 121.926 31.29C121.726 31.3633 121.583 31.46 121.496 31.58C121.409 31.6933 121.366 31.8267 121.366 31.98C121.366 32.16 121.439 32.3067 121.586 32.42C121.733 32.5267 121.926 32.6133 122.166 32.68C122.406 32.7467 122.669 32.8133 122.956 32.88C123.249 32.9467 123.539 33.0233 123.826 33.11C124.119 33.1967 124.386 33.3133 124.626 33.46C124.866 33.6067 125.059 33.8 125.206 34.04C125.359 34.28 125.436 34.5833 125.436 34.95C125.436 35.3433 125.326 35.7033 125.106 36.03C124.886 36.3567 124.556 36.62 124.116 36.82C123.683 37.02 123.133 37.12 122.466 37.12ZM128.493 35.4L128.403 33.53L131.753 30H133.553L130.533 33.25L129.633 34.21L128.493 35.4ZM127.043 37V30H128.653V37H127.043ZM131.833 37L129.343 33.95L130.403 32.8L133.723 37H131.833ZM136.168 37V34.14L136.538 35.12L133.458 30H135.178L137.538 33.93H136.548L138.918 30H140.508L137.428 35.12L137.788 34.14V37H136.168ZM141.627 37V30H143.247V37H141.627Z" fill="black"/>
</svg>
