<svg width="36" height="35" viewBox="0 0 36 35" fill="none" xmlns="http://www.w3.org/2000/svg">
<path d="M3.64388 34.8888V1.28879H17.3239C20.9079 1.28879 24.0439 2.00879 26.7319 3.44879C29.4519 4.85679 31.5639 6.82479 33.0679 9.35279C34.5719 11.8808 35.3239 14.7928 35.3239 18.0888C35.3239 21.3848 34.5719 24.2968 33.0679 26.8248C31.5639 29.3528 29.4519 31.3368 26.7319 32.7768C24.0439 34.1848 20.9079 34.8888 17.3239 34.8888H3.64388ZM7.19588 31.8168H17.1319C20.1079 31.8168 22.6839 31.2408 24.8599 30.0888C27.0679 28.9048 28.7799 27.2888 29.9959 25.2408C31.2119 23.1608 31.8199 20.7768 31.8199 18.0888C31.8199 15.3688 31.2119 12.9848 29.9959 10.9368C28.7799 8.88879 27.0679 7.28879 24.8599 6.13679C22.6839 4.95279 20.1079 4.36079 17.1319 4.36079H7.19588V31.8168Z" fill="#6E07F3"/>
<path d="M11.1874 23V11.8H13.3314L18.0994 19.704H16.9634L21.6514 11.8H23.7794L23.8114 23H21.3794L21.3634 15.528H21.8114L18.0674 21.816H16.8994L13.0754 15.528H13.6194V23H11.1874Z" fill="#6E07F3"/>
</svg>
