<svg width="246" height="56" viewBox="0 0 246 56" fill="none" xmlns="http://www.w3.org/2000/svg">
<path d="M71.66 34V20H74.34L80.3 29.88H78.88L84.74 20H87.4L87.44 34H84.4L84.38 24.66H84.94L80.26 32.52H78.8L74.02 24.66H74.7V34H71.66ZM88.9216 34L95.1616 20H98.3616L104.622 34H101.222L96.1016 21.64H97.3816L92.2416 34H88.9216ZM92.0416 31L92.9016 28.54H100.102L100.982 31H92.0416ZM108.974 30.8L108.794 27.06L115.494 20H119.094L113.054 26.5L111.254 28.42L108.974 30.8ZM106.074 34V20H109.294V34H106.074ZM115.654 34L110.674 27.9L112.794 25.6L119.434 34H115.654ZM125.186 34.24C124.066 34.24 122.992 34.0933 121.966 33.8C120.939 33.4933 120.112 33.1 119.486 32.62L120.586 30.18C121.186 30.6067 121.892 30.96 122.706 31.24C123.532 31.5067 124.366 31.64 125.206 31.64C125.846 31.64 126.359 31.58 126.746 31.46C127.146 31.3267 127.439 31.1467 127.626 30.92C127.812 30.6933 127.906 30.4333 127.906 30.14C127.906 29.7667 127.759 29.4733 127.466 29.26C127.172 29.0333 126.786 28.8533 126.306 28.72C125.826 28.5733 125.292 28.44 124.706 28.32C124.132 28.1867 123.552 28.0267 122.966 27.84C122.392 27.6533 121.866 27.4133 121.386 27.12C120.906 26.8267 120.512 26.44 120.206 25.96C119.912 25.48 119.766 24.8667 119.766 24.12C119.766 23.32 119.979 22.5933 120.406 21.94C120.846 21.2733 121.499 20.7467 122.366 20.36C123.246 19.96 124.346 19.76 125.666 19.76C126.546 19.76 127.412 19.8667 128.266 20.08C129.119 20.28 129.872 20.5867 130.526 21L129.526 23.46C128.872 23.0867 128.219 22.8133 127.566 22.64C126.912 22.4533 126.272 22.36 125.646 22.36C125.019 22.36 124.506 22.4333 124.106 22.58C123.706 22.7267 123.419 22.92 123.246 23.16C123.072 23.3867 122.986 23.6533 122.986 23.96C122.986 24.32 123.132 24.6133 123.426 24.84C123.719 25.0533 124.106 25.2267 124.586 25.36C125.066 25.4933 125.592 25.6267 126.166 25.76C126.752 25.8933 127.332 26.0467 127.906 26.22C128.492 26.3933 129.026 26.6267 129.506 26.92C129.986 27.2133 130.372 27.6 130.666 28.08C130.972 28.56 131.126 29.1667 131.126 29.9C131.126 30.6867 130.906 31.4067 130.466 32.06C130.026 32.7133 129.366 33.24 128.486 33.64C127.619 34.04 126.519 34.24 125.186 34.24ZM136.527 34V28.28L137.267 30.24L131.107 20H134.547L139.267 27.86H137.287L142.027 20H145.207L139.047 30.24L139.767 28.28V34H136.527ZM146.445 34V20H149.125L155.085 29.88H153.665L159.525 20H162.185L162.225 34H159.185L159.165 24.66H159.725L155.045 32.52H153.585L148.805 24.66H149.485V34H146.445ZM71.66 50V36H78.02C79.54 36 80.88 36.2933 82.04 36.88C83.2 37.4533 84.1067 38.26 84.76 39.3C85.4133 40.34 85.74 41.5733 85.74 43C85.74 44.4133 85.4133 45.6467 84.76 46.7C84.1067 47.74 83.2 48.5533 82.04 49.14C80.88 49.7133 79.54 50 78.02 50H71.66ZM74.9 47.34H77.86C78.7933 47.34 79.6 47.1667 80.28 46.82C80.9733 46.46 81.5067 45.9533 81.88 45.3C82.2667 44.6467 82.46 43.88 82.46 43C82.46 42.1067 82.2667 41.34 81.88 40.7C81.5067 40.0467 80.9733 39.5467 80.28 39.2C79.6 38.84 78.7933 38.66 77.86 38.66H74.9V47.34ZM88.1834 50V36H94.2434C95.4968 36 96.5768 36.2067 97.4834 36.62C98.3901 37.02 99.0901 37.6 99.5834 38.36C100.077 39.12 100.323 40.0267 100.323 41.08C100.323 42.12 100.077 43.02 99.5834 43.78C99.0901 44.5267 98.3901 45.1 97.4834 45.5C96.5768 45.9 95.4968 46.1 94.2434 46.1H89.9834L91.4234 44.68V50H88.1834ZM97.0834 50L93.5834 44.92H97.0434L100.583 50H97.0834ZM91.4234 45.04L89.9834 43.52H94.0634C95.0634 43.52 95.8101 43.3067 96.3034 42.88C96.7968 42.44 97.0434 41.84 97.0434 41.08C97.0434 40.3067 96.7968 39.7067 96.3034 39.28C95.8101 38.8533 95.0634 38.64 94.0634 38.64H89.9834L91.4234 37.1V45.04ZM101.05 50L107.29 36H110.49L116.75 50H113.35L108.23 37.64H109.51L104.37 50H101.05ZM104.17 47L105.03 44.54H112.23L113.11 47H104.17ZM118.203 50V36H120.883L126.843 45.88H125.423L131.283 36H133.943L133.983 50H130.943L130.923 40.66H131.483L126.803 48.52H125.343L120.563 40.66H121.243V50H118.203ZM135.465 50L141.705 36H144.905L151.165 50H147.765L142.645 37.64H143.925L138.785 50H135.465ZM138.585 47L139.445 44.54H146.645L147.525 47H138.585ZM152.617 50V36H158.677C159.93 36 161.01 36.2067 161.917 36.62C162.824 37.02 163.524 37.6 164.017 38.36C164.51 39.12 164.757 40.0267 164.757 41.08C164.757 42.12 164.51 43.02 164.017 43.78C163.524 44.5267 162.824 45.1 161.917 45.5C161.01 45.9 159.93 46.1 158.677 46.1H154.417L155.857 44.68V50H152.617ZM161.517 50L158.017 44.92H161.477L165.017 50H161.517ZM155.857 45.04L154.417 43.52H158.497C159.497 43.52 160.244 43.3067 160.737 42.88C161.23 42.44 161.477 41.84 161.477 41.08C161.477 40.3067 161.23 39.7067 160.737 39.28C160.244 38.8533 159.497 38.64 158.497 38.64H154.417L155.857 37.1V45.04ZM170.304 41.64H177.044V44.16H170.304V41.64ZM170.544 47.4H178.164V50H167.324V36H177.904V38.6H170.544V47.4ZM183.642 50V38.64H179.162V36H191.362V38.64H186.882V50H183.642ZM197.608 50.24C196.488 50.24 195.414 50.0933 194.388 49.8C193.361 49.4933 192.534 49.1 191.908 48.62L193.008 46.18C193.608 46.6067 194.314 46.96 195.128 47.24C195.954 47.5067 196.788 47.64 197.628 47.64C198.268 47.64 198.781 47.58 199.168 47.46C199.568 47.3267 199.861 47.1467 200.048 46.92C200.234 46.6933 200.328 46.4333 200.328 46.14C200.328 45.7667 200.181 45.4733 199.888 45.26C199.594 45.0333 199.208 44.8533 198.728 44.72C198.248 44.5733 197.714 44.44 197.128 44.32C196.554 44.1867 195.974 44.0267 195.388 43.84C194.814 43.6533 194.288 43.4133 193.808 43.12C193.328 42.8267 192.934 42.44 192.628 41.96C192.334 41.48 192.188 40.8667 192.188 40.12C192.188 39.32 192.401 38.5933 192.828 37.94C193.268 37.2733 193.921 36.7467 194.788 36.36C195.668 35.96 196.768 35.76 198.088 35.76C198.968 35.76 199.834 35.8667 200.688 36.08C201.541 36.28 202.294 36.5867 202.948 37L201.948 39.46C201.294 39.0867 200.641 38.8133 199.988 38.64C199.334 38.4533 198.694 38.36 198.068 38.36C197.441 38.36 196.928 38.4333 196.528 38.58C196.128 38.7267 195.841 38.92 195.668 39.16C195.494 39.3867 195.408 39.6533 195.408 39.96C195.408 40.32 195.554 40.6133 195.848 40.84C196.141 41.0533 196.528 41.2267 197.008 41.36C197.488 41.4933 198.014 41.6267 198.588 41.76C199.174 41.8933 199.754 42.0467 200.328 42.22C200.914 42.3933 201.448 42.6267 201.928 42.92C202.408 43.2133 202.794 43.6 203.088 44.08C203.394 44.56 203.548 45.1667 203.548 45.9C203.548 46.6867 203.328 47.4067 202.888 48.06C202.448 48.7133 201.788 49.24 200.908 49.64C200.041 50.04 198.941 50.24 197.608 50.24ZM208.662 46.8L208.482 43.06L215.182 36H218.782L212.742 42.5L210.942 44.42L208.662 46.8ZM205.762 50V36H208.982V50H205.762ZM215.342 50L210.362 43.9L212.482 41.6L219.122 50H215.342ZM223.011 50V44.28L223.751 46.24L217.591 36H221.031L225.751 43.86H223.771L228.511 36H231.691L225.531 46.24L226.251 44.28V50H223.011ZM232.93 50V36H236.17V50H232.93Z" fill="white"/>
<rect x="5" y="6" width="17" height="44" fill="#6E07F3"/>
<rect x="24" y="20" width="17" height="30" fill="#6E07F3"/>
<rect x="43" y="33" width="17" height="17" fill="#6E07F3"/>
</svg>
