<svg width="218" height="32" viewBox="0 0 218 32" fill="none" xmlns="http://www.w3.org/2000/svg">
<g clip-path="url(#clip0_217_130)">
<path d="M52.66 15V0.999999H55.34L61.3 10.88H59.88L65.74 0.999999H68.4L68.44 15H65.4L65.38 5.66H65.94L61.26 13.52H59.8L55.02 5.66H55.7V15H52.66ZM69.9216 15L76.1616 0.999999H79.3616L85.6216 15H82.2216L77.1016 2.64H78.3816L73.2416 15H69.9216ZM73.0416 12L73.9016 9.54H81.1016L81.9816 12H73.0416ZM89.9741 11.8L89.7941 8.06L96.4941 0.999999H100.094L94.0541 7.5L92.2541 9.42L89.9741 11.8ZM87.0741 15V0.999999H90.2941V15H87.0741ZM96.6541 15L91.6741 8.9L93.7941 6.6L100.434 15H96.6541ZM106.186 15.24C105.066 15.24 103.992 15.0933 102.966 14.8C101.939 14.4933 101.112 14.1 100.486 13.62L101.586 11.18C102.186 11.6067 102.892 11.96 103.706 12.24C104.532 12.5067 105.366 12.64 106.206 12.64C106.846 12.64 107.359 12.58 107.746 12.46C108.146 12.3267 108.439 12.1467 108.626 11.92C108.812 11.6933 108.906 11.4333 108.906 11.14C108.906 10.7667 108.759 10.4733 108.466 10.26C108.172 10.0333 107.786 9.85333 107.306 9.72C106.826 9.57333 106.292 9.44 105.706 9.32C105.132 9.18667 104.552 9.02667 103.966 8.84C103.392 8.65333 102.866 8.41333 102.386 8.12C101.906 7.82667 101.512 7.44 101.206 6.96C100.912 6.48 100.766 5.86667 100.766 5.12C100.766 4.32 100.979 3.59333 101.406 2.94C101.846 2.27333 102.499 1.74667 103.366 1.36C104.246 0.96 105.346 0.76 106.666 0.76C107.546 0.76 108.412 0.866666 109.266 1.08C110.119 1.28 110.872 1.58667 111.526 2L110.526 4.46C109.872 4.08667 109.219 3.81333 108.566 3.64C107.912 3.45333 107.272 3.36 106.646 3.36C106.019 3.36 105.506 3.43333 105.106 3.58C104.706 3.72667 104.419 3.92 104.246 4.16C104.072 4.38667 103.986 4.65333 103.986 4.96C103.986 5.32 104.132 5.61333 104.426 5.84C104.719 6.05333 105.106 6.22667 105.586 6.36C106.066 6.49333 106.592 6.62667 107.166 6.76C107.752 6.89333 108.332 7.04667 108.906 7.22C109.492 7.39333 110.026 7.62667 110.506 7.92C110.986 8.21333 111.372 8.6 111.666 9.08C111.972 9.56 112.126 10.1667 112.126 10.9C112.126 11.6867 111.906 12.4067 111.466 13.06C111.026 13.7133 110.366 14.24 109.486 14.64C108.619 15.04 107.519 15.24 106.186 15.24ZM117.527 15V9.28L118.267 11.24L112.107 0.999999H115.547L120.267 8.86H118.287L123.027 0.999999H126.207L120.047 11.24L120.767 9.28V15H117.527ZM127.445 15V0.999999H130.125L136.085 10.88H134.665L140.525 0.999999H143.185L143.225 15H140.185L140.165 5.66H140.725L136.045 13.52H134.585L129.805 5.66H130.485V15H127.445ZM52.66 31V17H59.02C60.54 17 61.88 17.2933 63.04 17.88C64.2 18.4533 65.1067 19.26 65.76 20.3C66.4133 21.34 66.74 22.5733 66.74 24C66.74 25.4133 66.4133 26.6467 65.76 27.7C65.1067 28.74 64.2 29.5533 63.04 30.14C61.88 30.7133 60.54 31 59.02 31H52.66ZM55.9 28.34H58.86C59.7933 28.34 60.6 28.1667 61.28 27.82C61.9733 27.46 62.5067 26.9533 62.88 26.3C63.2667 25.6467 63.46 24.88 63.46 24C63.46 23.1067 63.2667 22.34 62.88 21.7C62.5067 21.0467 61.9733 20.5467 61.28 20.2C60.6 19.84 59.7933 19.66 58.86 19.66H55.9V28.34ZM69.1834 31V17H75.2434C76.4968 17 77.5768 17.2067 78.4834 17.62C79.3901 18.02 80.0901 18.6 80.5834 19.36C81.0768 20.12 81.3234 21.0267 81.3234 22.08C81.3234 23.12 81.0768 24.02 80.5834 24.78C80.0901 25.5267 79.3901 26.1 78.4834 26.5C77.5768 26.9 76.4968 27.1 75.2434 27.1H70.9834L72.4234 25.68V31H69.1834ZM78.0834 31L74.5834 25.92H78.0434L81.5834 31H78.0834ZM72.4234 26.04L70.9834 24.52H75.0634C76.0634 24.52 76.8101 24.3067 77.3034 23.88C77.7968 23.44 78.0434 22.84 78.0434 22.08C78.0434 21.3067 77.7968 20.7067 77.3034 20.28C76.8101 19.8533 76.0634 19.64 75.0634 19.64H70.9834L72.4234 18.1V26.04ZM82.0505 31L88.2905 17H91.4905L97.7505 31H94.3505L89.2305 18.64H90.5105L85.3705 31H82.0505ZM85.1705 28L86.0305 25.54H93.2305L94.1105 28H85.1705ZM99.203 31V17H101.883L107.843 26.88H106.423L112.283 17H114.943L114.983 31H111.943L111.923 21.66H112.483L107.803 29.52H106.343L101.563 21.66H102.243V31H99.203ZM116.465 31L122.705 17H125.905L132.165 31H128.765L123.645 18.64H124.925L119.785 31H116.465ZM119.585 28L120.445 25.54H127.645L128.525 28H119.585ZM133.617 31V17H139.677C140.93 17 142.01 17.2067 142.917 17.62C143.824 18.02 144.524 18.6 145.017 19.36C145.51 20.12 145.757 21.0267 145.757 22.08C145.757 23.12 145.51 24.02 145.017 24.78C144.524 25.5267 143.824 26.1 142.917 26.5C142.01 26.9 140.93 27.1 139.677 27.1H135.417L136.857 25.68V31H133.617ZM142.517 31L139.017 25.92H142.477L146.017 31H142.517ZM136.857 26.04L135.417 24.52H139.497C140.497 24.52 141.244 24.3067 141.737 23.88C142.23 23.44 142.477 22.84 142.477 22.08C142.477 21.3067 142.23 20.7067 141.737 20.28C141.244 19.8533 140.497 19.64 139.497 19.64H135.417L136.857 18.1V26.04ZM151.304 22.64H158.044V25.16H151.304V22.64ZM151.544 28.4H159.164V31H148.324V17H158.904V19.6H151.544V28.4ZM164.642 31V19.64H160.162V17H172.362V19.64H167.882V31H164.642ZM178.608 31.24C177.488 31.24 176.414 31.0933 175.388 30.8C174.361 30.4933 173.534 30.1 172.908 29.62L174.008 27.18C174.608 27.6067 175.314 27.96 176.128 28.24C176.954 28.5067 177.788 28.64 178.628 28.64C179.268 28.64 179.781 28.58 180.168 28.46C180.568 28.3267 180.861 28.1467 181.048 27.92C181.234 27.6933 181.328 27.4333 181.328 27.14C181.328 26.7667 181.181 26.4733 180.888 26.26C180.594 26.0333 180.208 25.8533 179.728 25.72C179.248 25.5733 178.714 25.44 178.128 25.32C177.554 25.1867 176.974 25.0267 176.388 24.84C175.814 24.6533 175.288 24.4133 174.808 24.12C174.328 23.8267 173.934 23.44 173.628 22.96C173.334 22.48 173.188 21.8667 173.188 21.12C173.188 20.32 173.401 19.5933 173.828 18.94C174.268 18.2733 174.921 17.7467 175.788 17.36C176.668 16.96 177.768 16.76 179.088 16.76C179.968 16.76 180.834 16.8667 181.688 17.08C182.541 17.28 183.294 17.5867 183.948 18L182.948 20.46C182.294 20.0867 181.641 19.8133 180.988 19.64C180.334 19.4533 179.694 19.36 179.068 19.36C178.441 19.36 177.928 19.4333 177.528 19.58C177.128 19.7267 176.841 19.92 176.668 20.16C176.494 20.3867 176.408 20.6533 176.408 20.96C176.408 21.32 176.554 21.6133 176.848 21.84C177.141 22.0533 177.528 22.2267 178.008 22.36C178.488 22.4933 179.014 22.6267 179.588 22.76C180.174 22.8933 180.754 23.0467 181.328 23.22C181.914 23.3933 182.448 23.6267 182.928 23.92C183.408 24.2133 183.794 24.6 184.088 25.08C184.394 25.56 184.548 26.1667 184.548 26.9C184.548 27.6867 184.328 28.4067 183.888 29.06C183.448 29.7133 182.788 30.24 181.908 30.64C181.041 31.04 179.941 31.24 178.608 31.24ZM189.662 27.8L189.482 24.06L196.182 17H199.782L193.742 23.5L191.942 25.42L189.662 27.8ZM186.762 31V17H189.982V31H186.762ZM196.342 31L191.362 24.9L193.482 22.6L200.122 31H196.342ZM204.011 31V25.28L204.751 27.24L198.591 17H202.031L206.751 24.86H204.771L209.511 17H212.691L206.531 27.24L207.251 25.28V31H204.011ZM213.93 31V17H217.17V31H213.93Z" fill="white"/>
<rect x="1" width="12" height="31" fill="#FC490B"/>
<rect x="15" y="10" width="12" height="21" fill="#FC490B"/>
<rect x="29" y="19" width="12" height="12" fill="#FC490B"/>
</g>
<defs>
<clipPath id="clip0_217_130">
<rect width="218" height="32" fill="white"/>
</clipPath>
</defs>
</svg>
