<svg width="175" height="66" viewBox="0 0 175 66" fill="none" xmlns="http://www.w3.org/2000/svg">
<path d="M16.7542 64V3.8H28.2782L53.9063 46.284H47.8003L72.9983 3.8H84.4363L84.6083 64H71.5363L71.4503 23.838H73.8583L53.7343 57.636H47.4563L26.9022 23.838H29.8263V64H16.7542ZM101.471 64V3.8H128.819C135.355 3.8 141.117 5.06133 146.105 7.584C151.093 10.0493 154.992 13.518 157.801 17.99C160.61 22.462 162.015 27.7653 162.015 33.9C162.015 39.9773 160.61 45.2807 157.801 49.81C154.992 54.282 151.093 57.7793 146.105 60.302C141.117 62.7673 135.355 64 128.819 64H101.471ZM115.403 52.562H128.131C132.144 52.562 135.613 51.8167 138.537 50.326C141.518 48.778 143.812 46.5993 145.417 43.79C147.08 40.9807 147.911 37.684 147.911 33.9C147.911 30.0587 147.08 26.762 145.417 24.01C143.812 21.2007 141.518 19.0507 138.537 17.56C135.613 16.012 132.144 15.238 128.131 15.238H115.403V52.562Z" fill="#FDFEFE"/>
<rect x="16" y="32" width="146" height="18" fill="#1D2430"/>
<path d="M17.9843 45V38H19.3243L22.3043 42.94H21.5943L24.5243 38H25.8543L25.8743 45H24.3543L24.3443 40.33H24.6243L22.2843 44.26H21.5543L19.1643 40.33H19.5043V45H17.9843ZM27.1151 45L30.2351 38H31.8351L34.9651 45H33.2651L30.7051 38.82H31.3451L28.7751 45H27.1151ZM28.6751 43.5L29.1051 42.27H32.7051L33.1451 43.5H28.6751ZM37.6413 43.4L37.5513 41.53L40.9013 38H42.7013L39.6813 41.25L38.7813 42.21L37.6413 43.4ZM36.1913 45V38H37.8013V45H36.1913ZM40.9813 45L38.4913 41.95L39.5513 40.8L42.8713 45H40.9813ZM46.2472 45.12C45.6872 45.12 45.1505 45.0467 44.6372 44.9C44.1239 44.7467 43.7105 44.55 43.3972 44.31L43.9472 43.09C44.2472 43.3033 44.6005 43.48 45.0072 43.62C45.4205 43.7533 45.8372 43.82 46.2572 43.82C46.5772 43.82 46.8339 43.79 47.0272 43.73C47.2272 43.6633 47.3739 43.5733 47.4672 43.46C47.5605 43.3467 47.6072 43.2167 47.6072 43.07C47.6072 42.8833 47.5339 42.7367 47.3872 42.63C47.2405 42.5167 47.0472 42.4267 46.8072 42.36C46.5672 42.2867 46.3005 42.22 46.0072 42.16C45.7205 42.0933 45.4305 42.0133 45.1372 41.92C44.8505 41.8267 44.5872 41.7067 44.3472 41.56C44.1072 41.4133 43.9105 41.22 43.7572 40.98C43.6105 40.74 43.5372 40.4333 43.5372 40.06C43.5372 39.66 43.6439 39.2967 43.8572 38.97C44.0772 38.6367 44.4039 38.3733 44.8372 38.18C45.2772 37.98 45.8272 37.88 46.4872 37.88C46.9272 37.88 47.3605 37.9333 47.7872 38.04C48.2139 38.14 48.5905 38.2933 48.9172 38.5L48.4172 39.73C48.0905 39.5433 47.7639 39.4067 47.4372 39.32C47.1105 39.2267 46.7905 39.18 46.4772 39.18C46.1639 39.18 45.9072 39.2167 45.7072 39.29C45.5072 39.3633 45.3639 39.46 45.2772 39.58C45.1905 39.6933 45.1472 39.8267 45.1472 39.98C45.1472 40.16 45.2205 40.3067 45.3672 40.42C45.5139 40.5267 45.7072 40.6133 45.9472 40.68C46.1872 40.7467 46.4505 40.8133 46.7372 40.88C47.0305 40.9467 47.3205 41.0233 47.6072 41.11C47.9005 41.1967 48.1672 41.3133 48.4072 41.46C48.6472 41.6067 48.8405 41.8 48.9872 42.04C49.1405 42.28 49.2172 42.5833 49.2172 42.95C49.2172 43.3433 49.1072 43.7033 48.8872 44.03C48.6672 44.3567 48.3372 44.62 47.8972 44.82C47.4639 45.02 46.9139 45.12 46.2472 45.12ZM52.4177 45V42.14L52.7877 43.12L49.7077 38H51.4277L53.7877 41.93H52.7977L55.1677 38H56.7577L53.6777 43.12L54.0377 42.14V45H52.4177ZM57.8769 45V38H59.2169L62.1969 42.94H61.4869L64.4169 38H65.7469L65.7669 45H64.2469L64.2369 40.33H64.5169L62.1769 44.26H61.4469L59.0569 40.33H59.3969V45H57.8769ZM71.2597 45V38H74.4397C75.1997 38 75.8697 38.1467 76.4497 38.44C77.0297 38.7267 77.483 39.13 77.8097 39.65C78.1364 40.17 78.2997 40.7867 78.2997 41.5C78.2997 42.2067 78.1364 42.8233 77.8097 43.35C77.483 43.87 77.0297 44.2767 76.4497 44.57C75.8697 44.8567 75.1997 45 74.4397 45H71.2597ZM72.8797 43.67H74.3597C74.8264 43.67 75.2297 43.5833 75.5697 43.41C75.9164 43.23 76.183 42.9767 76.3697 42.65C76.563 42.3233 76.6597 41.94 76.6597 41.5C76.6597 41.0533 76.563 40.67 76.3697 40.35C76.183 40.0233 75.9164 39.7733 75.5697 39.6C75.2297 39.42 74.8264 39.33 74.3597 39.33H72.8797V43.67ZM80.0214 45V38H83.0514C83.6781 38 84.2181 38.1033 84.6714 38.31C85.1247 38.51 85.4747 38.8 85.7214 39.18C85.9681 39.56 86.0914 40.0133 86.0914 40.54C86.0914 41.06 85.9681 41.51 85.7214 41.89C85.4747 42.2633 85.1247 42.55 84.6714 42.75C84.2181 42.95 83.6781 43.05 83.0514 43.05H80.9214L81.6414 42.34V45H80.0214ZM84.4714 45L82.7214 42.46H84.4514L86.2214 45H84.4714ZM81.6414 42.52L80.9214 41.76H82.9614C83.4614 41.76 83.8347 41.6533 84.0814 41.44C84.3281 41.22 84.4514 40.92 84.4514 40.54C84.4514 40.1533 84.3281 39.8533 84.0814 39.64C83.8347 39.4267 83.4614 39.32 82.9614 39.32H80.9214L81.6414 38.55V42.52ZM86.9549 45L90.0749 38H91.6749L94.8049 45H93.1049L90.5449 38.82H91.1849L88.6149 45H86.9549ZM88.5149 43.5L88.9449 42.27H92.5449L92.9849 43.5H88.5149ZM96.0312 45V38H97.3712L100.351 42.94H99.6412L102.571 38H103.901L103.921 45H102.401L102.391 40.33H102.671L100.331 44.26H99.6012L97.2112 40.33H97.5512V45H96.0312ZM105.162 45L108.282 38H109.882L113.012 45H111.312L108.752 38.82H109.392L106.822 45H105.162ZM106.722 43.5L107.152 42.27H110.752L111.192 43.5H106.722ZM114.238 45V38H117.268C117.895 38 118.435 38.1033 118.888 38.31C119.342 38.51 119.692 38.8 119.938 39.18C120.185 39.56 120.308 40.0133 120.308 40.54C120.308 41.06 120.185 41.51 119.938 41.89C119.692 42.2633 119.342 42.55 118.888 42.75C118.435 42.95 117.895 43.05 117.268 43.05H115.138L115.858 42.34V45H114.238ZM118.688 45L116.938 42.46H118.668L120.438 45H118.688ZM115.858 42.52L115.138 41.76H117.178C117.678 41.76 118.052 41.6533 118.298 41.44C118.545 41.22 118.668 40.92 118.668 40.54C118.668 40.1533 118.545 39.8533 118.298 39.64C118.052 39.4267 117.678 39.32 117.178 39.32H115.138L115.858 38.55V42.52ZM123.582 40.82H126.952V42.08H123.582V40.82ZM123.702 43.7H127.512V45H122.092V38H127.382V39.3H123.702V43.7ZM130.751 45V39.32H128.511V38H134.611V39.32H132.371V45H130.751ZM138.234 45.12C137.674 45.12 137.137 45.0467 136.624 44.9C136.11 44.7467 135.697 44.55 135.384 44.31L135.934 43.09C136.234 43.3033 136.587 43.48 136.994 43.62C137.407 43.7533 137.824 43.82 138.244 43.82C138.564 43.82 138.82 43.79 139.014 43.73C139.214 43.6633 139.36 43.5733 139.454 43.46C139.547 43.3467 139.594 43.2167 139.594 43.07C139.594 42.8833 139.52 42.7367 139.374 42.63C139.227 42.5167 139.034 42.4267 138.794 42.36C138.554 42.2867 138.287 42.22 137.994 42.16C137.707 42.0933 137.417 42.0133 137.124 41.92C136.837 41.8267 136.574 41.7067 136.334 41.56C136.094 41.4133 135.897 41.22 135.744 40.98C135.597 40.74 135.524 40.4333 135.524 40.06C135.524 39.66 135.63 39.2967 135.844 38.97C136.064 38.6367 136.39 38.3733 136.824 38.18C137.264 37.98 137.814 37.88 138.474 37.88C138.914 37.88 139.347 37.9333 139.774 38.04C140.2 38.14 140.577 38.2933 140.904 38.5L140.404 39.73C140.077 39.5433 139.75 39.4067 139.424 39.32C139.097 39.2267 138.777 39.18 138.464 39.18C138.15 39.18 137.894 39.2167 137.694 39.29C137.494 39.3633 137.35 39.46 137.264 39.58C137.177 39.6933 137.134 39.8267 137.134 39.98C137.134 40.16 137.207 40.3067 137.354 40.42C137.5 40.5267 137.694 40.6133 137.934 40.68C138.174 40.7467 138.437 40.8133 138.724 40.88C139.017 40.9467 139.307 41.0233 139.594 41.11C139.887 41.1967 140.154 41.3133 140.394 41.46C140.634 41.6067 140.827 41.8 140.974 42.04C141.127 42.28 141.204 42.5833 141.204 42.95C141.204 43.3433 141.094 43.7033 140.874 44.03C140.654 44.3567 140.324 44.62 139.884 44.82C139.45 45.02 138.9 45.12 138.234 45.12ZM144.26 43.4L144.17 41.53L147.52 38H149.32L146.3 41.25L145.4 42.21L144.26 43.4ZM142.81 45V38H144.42V45H142.81ZM147.6 45L145.11 41.95L146.17 40.8L149.49 45H147.6ZM151.935 45V42.14L152.305 43.12L149.225 38H150.945L153.305 41.93H152.315L154.685 38H156.275L153.195 43.12L153.555 42.14V45H151.935ZM157.394 45V38H159.014V45H157.394Z" fill="#FDFEFE"/>
</svg>

