<svg width="132" height="29" viewBox="0 0 132 29" fill="none" xmlns="http://www.w3.org/2000/svg">
<path d="M41.83 20V13H43.17L46.15 17.94H45.44L48.37 13H49.7L49.72 20H48.2L48.19 15.33H48.47L46.13 19.26H45.4L43.01 15.33H43.35V20H41.83ZM50.4608 20L53.5808 13H55.1808L58.3108 20H56.6108L54.0508 13.82H54.6908L52.1208 20H50.4608ZM52.0208 18.5L52.4508 17.27H56.0508L56.4908 18.5H52.0208ZM60.487 18.4L60.397 16.53L63.747 13H65.547L62.527 16.25L61.627 17.21L60.487 18.4ZM59.037 20V13H60.647V20H59.037ZM63.827 20L61.337 16.95L62.397 15.8L65.717 20H63.827ZM68.5929 20.12C68.0329 20.12 67.4962 20.0467 66.9829 19.9C66.4696 19.7467 66.0562 19.55 65.7429 19.31L66.2929 18.09C66.5929 18.3033 66.9462 18.48 67.3529 18.62C67.7662 18.7533 68.1829 18.82 68.6029 18.82C68.9229 18.82 69.1796 18.79 69.3729 18.73C69.5729 18.6633 69.7196 18.5733 69.8129 18.46C69.9062 18.3467 69.9529 18.2167 69.9529 18.07C69.9529 17.8833 69.8796 17.7367 69.7329 17.63C69.5862 17.5167 69.3929 17.4267 69.1529 17.36C68.9129 17.2867 68.6462 17.22 68.3529 17.16C68.0662 17.0933 67.7762 17.0133 67.4829 16.92C67.1962 16.8267 66.9329 16.7067 66.6929 16.56C66.4529 16.4133 66.2562 16.22 66.1029 15.98C65.9562 15.74 65.8829 15.4333 65.8829 15.06C65.8829 14.66 65.9896 14.2967 66.2029 13.97C66.4229 13.6367 66.7496 13.3733 67.1829 13.18C67.6229 12.98 68.1729 12.88 68.8329 12.88C69.2729 12.88 69.7062 12.9333 70.1329 13.04C70.5596 13.14 70.9362 13.2933 71.2629 13.5L70.7629 14.73C70.4362 14.5433 70.1096 14.4067 69.7829 14.32C69.4562 14.2267 69.1362 14.18 68.8229 14.18C68.5096 14.18 68.2529 14.2167 68.0529 14.29C67.8529 14.3633 67.7096 14.46 67.6229 14.58C67.5362 14.6933 67.4929 14.8267 67.4929 14.98C67.4929 15.16 67.5662 15.3067 67.7129 15.42C67.8596 15.5267 68.0529 15.6133 68.2929 15.68C68.5329 15.7467 68.7962 15.8133 69.0829 15.88C69.3762 15.9467 69.6662 16.0233 69.9529 16.11C70.2462 16.1967 70.5129 16.3133 70.7529 16.46C70.9929 16.6067 71.1862 16.8 71.3329 17.04C71.4862 17.28 71.5629 17.5833 71.5629 17.95C71.5629 18.3433 71.4529 18.7033 71.2329 19.03C71.0129 19.3567 70.6829 19.62 70.2429 19.82C69.8096 20.02 69.2596 20.12 68.5929 20.12ZM74.2634 20V17.14L74.6334 18.12L71.5534 13H73.2734L75.6334 16.93H74.6434L77.0134 13H78.6034L75.5234 18.12L75.8834 17.14V20H74.2634ZM79.2226 20V13H80.5626L83.5426 17.94H82.8326L85.7626 13H87.0926L87.1126 20H85.5926L85.5826 15.33H85.8626L83.5226 19.26H82.7926L80.4026 15.33H80.7426V20H79.2226ZM41.83 28V21H45.01C45.77 21 46.44 21.1467 47.02 21.44C47.6 21.7267 48.0533 22.13 48.38 22.65C48.7067 23.17 48.87 23.7867 48.87 24.5C48.87 25.2067 48.7067 25.8233 48.38 26.35C48.0533 26.87 47.6 27.2767 47.02 27.57C46.44 27.8567 45.77 28 45.01 28H41.83ZM43.45 26.67H44.93C45.3967 26.67 45.8 26.5833 46.14 26.41C46.4867 26.23 46.7533 25.9767 46.94 25.65C47.1333 25.3233 47.23 24.94 47.23 24.5C47.23 24.0533 47.1333 23.67 46.94 23.35C46.7533 23.0233 46.4867 22.7733 46.14 22.6C45.8 22.42 45.3967 22.33 44.93 22.33H43.45V26.67ZM50.0917 28V21H53.1217C53.7484 21 54.2884 21.1033 54.7417 21.31C55.1951 21.51 55.5451 21.8 55.7917 22.18C56.0384 22.56 56.1617 23.0133 56.1617 23.54C56.1617 24.06 56.0384 24.51 55.7917 24.89C55.5451 25.2633 55.1951 25.55 54.7417 25.75C54.2884 25.95 53.7484 26.05 53.1217 26.05H50.9917L51.7117 25.34V28H50.0917ZM54.5417 28L52.7917 25.46H54.5217L56.2917 28H54.5417ZM51.7117 25.52L50.9917 24.76H53.0317C53.5317 24.76 53.9051 24.6533 54.1517 24.44C54.3984 24.22 54.5217 23.92 54.5217 23.54C54.5217 23.1533 54.3984 22.8533 54.1517 22.64C53.9051 22.4267 53.5317 22.32 53.0317 22.32H50.9917L51.7117 21.55V25.52ZM56.5252 28L59.6452 21H61.2452L64.3752 28H62.6752L60.1152 21.82H60.7552L58.1852 28H56.5252ZM58.0852 26.5L58.5152 25.27H62.1152L62.5552 26.5H58.0852ZM65.1015 28V21H66.4415L69.4215 25.94H68.7115L71.6415 21H72.9715L72.9915 28H71.4715L71.4615 23.33H71.7415L69.4015 27.26H68.6715L66.2815 23.33H66.6215V28H65.1015ZM73.7323 28L76.8523 21H78.4523L81.5823 28H79.8823L77.3223 21.82H77.9623L75.3923 28H73.7323ZM75.2923 26.5L75.7223 25.27H79.3223L79.7623 26.5H75.2923ZM82.3085 28V21H85.3385C85.9652 21 86.5052 21.1033 86.9585 21.31C87.4118 21.51 87.7618 21.8 88.0085 22.18C88.2552 22.56 88.3785 23.0133 88.3785 23.54C88.3785 24.06 88.2552 24.51 88.0085 24.89C87.7618 25.2633 87.4118 25.55 86.9585 25.75C86.5052 25.95 85.9652 26.05 85.3385 26.05H83.2085L83.9285 25.34V28H82.3085ZM86.7585 28L85.0085 25.46H86.7385L88.5085 28H86.7585ZM83.9285 25.52L83.2085 24.76H85.2485C85.7485 24.76 86.1218 24.6533 86.3685 24.44C86.6152 24.22 86.7385 23.92 86.7385 23.54C86.7385 23.1533 86.6152 22.8533 86.3685 22.64C86.1218 22.4267 85.7485 22.32 85.2485 22.32H83.2085L83.9285 21.55V25.52ZM91.152 23.82H94.522V25.08H91.152V23.82ZM91.272 26.7H95.082V28H89.662V21H94.952V22.3H91.272V26.7ZM97.821 28V22.32H95.581V21H101.681V22.32H99.441V28H97.821ZM104.804 28.12C104.244 28.12 103.707 28.0467 103.194 27.9C102.68 27.7467 102.267 27.55 101.954 27.31L102.504 26.09C102.804 26.3033 103.157 26.48 103.564 26.62C103.977 26.7533 104.394 26.82 104.814 26.82C105.134 26.82 105.39 26.79 105.584 26.73C105.784 26.6633 105.93 26.5733 106.024 26.46C106.117 26.3467 106.164 26.2167 106.164 26.07C106.164 25.8833 106.09 25.7367 105.944 25.63C105.797 25.5167 105.604 25.4267 105.364 25.36C105.124 25.2867 104.857 25.22 104.564 25.16C104.277 25.0933 103.987 25.0133 103.694 24.92C103.407 24.8267 103.144 24.7067 102.904 24.56C102.664 24.4133 102.467 24.22 102.314 23.98C102.167 23.74 102.094 23.4333 102.094 23.06C102.094 22.66 102.2 22.2967 102.414 21.97C102.634 21.6367 102.96 21.3733 103.394 21.18C103.834 20.98 104.384 20.88 105.044 20.88C105.484 20.88 105.917 20.9333 106.344 21.04C106.77 21.14 107.147 21.2933 107.474 21.5L106.974 22.73C106.647 22.5433 106.32 22.4067 105.994 22.32C105.667 22.2267 105.347 22.18 105.034 22.18C104.72 22.18 104.464 22.2167 104.264 22.29C104.064 22.3633 103.92 22.46 103.834 22.58C103.747 22.6933 103.704 22.8267 103.704 22.98C103.704 23.16 103.777 23.3067 103.924 23.42C104.07 23.5267 104.264 23.6133 104.504 23.68C104.744 23.7467 105.007 23.8133 105.294 23.88C105.587 23.9467 105.877 24.0233 106.164 24.11C106.457 24.1967 106.724 24.3133 106.964 24.46C107.204 24.6067 107.397 24.8 107.544 25.04C107.697 25.28 107.774 25.5833 107.774 25.95C107.774 26.3433 107.664 26.7033 107.444 27.03C107.224 27.3567 106.894 27.62 106.454 27.82C106.02 28.02 105.47 28.12 104.804 28.12ZM110.331 26.4L110.241 24.53L113.591 21H115.391L112.371 24.25L111.471 25.21L110.331 26.4ZM108.881 28V21H110.491V28H108.881ZM113.671 28L111.181 24.95L112.241 23.8L115.561 28H113.671ZM117.506 28V25.14L117.876 26.12L114.796 21H116.516L118.876 24.93H117.886L120.256 21H121.846L118.766 26.12L119.126 25.14V28H117.506ZM122.465 28V21H124.085V28H122.465Z" fill="white"/>
<rect width="11.1273" height="28" fill="#FC490B"/>
<rect x="12.4365" y="8.90912" width="11.1273" height="19.0909" fill="#FC490B"/>
<rect x="24.873" y="17.1818" width="11.1273" height="10.8182" fill="#FC490B"/>
</svg>
