<svg width="246" height="45" viewBox="0 0 246 45" fill="none" xmlns="http://www.w3.org/2000/svg">
<path d="M71.66 28V14H74.34L80.3 23.88H78.88L84.74 14H87.4L87.44 28H84.4L84.38 18.66H84.94L80.26 26.52H78.8L74.02 18.66H74.7V28H71.66ZM88.9216 28L95.1616 14H98.3616L104.622 28H101.222L96.1016 15.64H97.3816L92.2416 28H88.9216ZM92.0416 25L92.9016 22.54H100.102L100.982 25H92.0416ZM108.974 24.8L108.794 21.06L115.494 14H119.094L113.054 20.5L111.254 22.42L108.974 24.8ZM106.074 28V14H109.294V28H106.074ZM115.654 28L110.674 21.9L112.794 19.6L119.434 28H115.654ZM125.186 28.24C124.066 28.24 122.992 28.0933 121.966 27.8C120.939 27.4933 120.112 27.1 119.486 26.62L120.586 24.18C121.186 24.6067 121.892 24.96 122.706 25.24C123.532 25.5067 124.366 25.64 125.206 25.64C125.846 25.64 126.359 25.58 126.746 25.46C127.146 25.3267 127.439 25.1467 127.626 24.92C127.812 24.6933 127.906 24.4333 127.906 24.14C127.906 23.7667 127.759 23.4733 127.466 23.26C127.172 23.0333 126.786 22.8533 126.306 22.72C125.826 22.5733 125.292 22.44 124.706 22.32C124.132 22.1867 123.552 22.0267 122.966 21.84C122.392 21.6533 121.866 21.4133 121.386 21.12C120.906 20.8267 120.512 20.44 120.206 19.96C119.912 19.48 119.766 18.8667 119.766 18.12C119.766 17.32 119.979 16.5933 120.406 15.94C120.846 15.2733 121.499 14.7467 122.366 14.36C123.246 13.96 124.346 13.76 125.666 13.76C126.546 13.76 127.412 13.8667 128.266 14.08C129.119 14.28 129.872 14.5867 130.526 15L129.526 17.46C128.872 17.0867 128.219 16.8133 127.566 16.64C126.912 16.4533 126.272 16.36 125.646 16.36C125.019 16.36 124.506 16.4333 124.106 16.58C123.706 16.7267 123.419 16.92 123.246 17.16C123.072 17.3867 122.986 17.6533 122.986 17.96C122.986 18.32 123.132 18.6133 123.426 18.84C123.719 19.0533 124.106 19.2267 124.586 19.36C125.066 19.4933 125.592 19.6267 126.166 19.76C126.752 19.8933 127.332 20.0467 127.906 20.22C128.492 20.3933 129.026 20.6267 129.506 20.92C129.986 21.2133 130.372 21.6 130.666 22.08C130.972 22.56 131.126 23.1667 131.126 23.9C131.126 24.6867 130.906 25.4067 130.466 26.06C130.026 26.7133 129.366 27.24 128.486 27.64C127.619 28.04 126.519 28.24 125.186 28.24ZM136.527 28V22.28L137.267 24.24L131.107 14H134.547L139.267 21.86H137.287L142.027 14H145.207L139.047 24.24L139.767 22.28V28H136.527ZM146.445 28V14H149.125L155.085 23.88H153.665L159.525 14H162.185L162.225 28H159.185L159.165 18.66H159.725L155.045 26.52H153.585L148.805 18.66H149.485V28H146.445ZM71.66 44V30H78.02C79.54 30 80.88 30.2933 82.04 30.88C83.2 31.4533 84.1067 32.26 84.76 33.3C85.4133 34.34 85.74 35.5733 85.74 37C85.74 38.4133 85.4133 39.6467 84.76 40.7C84.1067 41.74 83.2 42.5533 82.04 43.14C80.88 43.7133 79.54 44 78.02 44H71.66ZM74.9 41.34H77.86C78.7933 41.34 79.6 41.1667 80.28 40.82C80.9733 40.46 81.5067 39.9533 81.88 39.3C82.2667 38.6467 82.46 37.88 82.46 37C82.46 36.1067 82.2667 35.34 81.88 34.7C81.5067 34.0467 80.9733 33.5467 80.28 33.2C79.6 32.84 78.7933 32.66 77.86 32.66H74.9V41.34ZM88.1834 44V30H94.2434C95.4968 30 96.5768 30.2067 97.4834 30.62C98.3901 31.02 99.0901 31.6 99.5834 32.36C100.077 33.12 100.323 34.0267 100.323 35.08C100.323 36.12 100.077 37.02 99.5834 37.78C99.0901 38.5267 98.3901 39.1 97.4834 39.5C96.5768 39.9 95.4968 40.1 94.2434 40.1H89.9834L91.4234 38.68V44H88.1834ZM97.0834 44L93.5834 38.92H97.0434L100.583 44H97.0834ZM91.4234 39.04L89.9834 37.52H94.0634C95.0634 37.52 95.8101 37.3067 96.3034 36.88C96.7968 36.44 97.0434 35.84 97.0434 35.08C97.0434 34.3067 96.7968 33.7067 96.3034 33.28C95.8101 32.8533 95.0634 32.64 94.0634 32.64H89.9834L91.4234 31.1V39.04ZM101.05 44L107.29 30H110.49L116.75 44H113.35L108.23 31.64H109.51L104.37 44H101.05ZM104.17 41L105.03 38.54H112.23L113.11 41H104.17ZM118.203 44V30H120.883L126.843 39.88H125.423L131.283 30H133.943L133.983 44H130.943L130.923 34.66H131.483L126.803 42.52H125.343L120.563 34.66H121.243V44H118.203ZM135.465 44L141.705 30H144.905L151.165 44H147.765L142.645 31.64H143.925L138.785 44H135.465ZM138.585 41L139.445 38.54H146.645L147.525 41H138.585ZM152.617 44V30H158.677C159.93 30 161.01 30.2067 161.917 30.62C162.824 31.02 163.524 31.6 164.017 32.36C164.51 33.12 164.757 34.0267 164.757 35.08C164.757 36.12 164.51 37.02 164.017 37.78C163.524 38.5267 162.824 39.1 161.917 39.5C161.01 39.9 159.93 40.1 158.677 40.1H154.417L155.857 38.68V44H152.617ZM161.517 44L158.017 38.92H161.477L165.017 44H161.517ZM155.857 39.04L154.417 37.52H158.497C159.497 37.52 160.244 37.3067 160.737 36.88C161.23 36.44 161.477 35.84 161.477 35.08C161.477 34.3067 161.23 33.7067 160.737 33.28C160.244 32.8533 159.497 32.64 158.497 32.64H154.417L155.857 31.1V39.04ZM170.304 35.64H177.044V38.16H170.304V35.64ZM170.544 41.4H178.164V44H167.324V30H177.904V32.6H170.544V41.4ZM183.642 44V32.64H179.162V30H191.362V32.64H186.882V44H183.642ZM197.608 44.24C196.488 44.24 195.414 44.0933 194.388 43.8C193.361 43.4933 192.534 43.1 191.908 42.62L193.008 40.18C193.608 40.6067 194.314 40.96 195.128 41.24C195.954 41.5067 196.788 41.64 197.628 41.64C198.268 41.64 198.781 41.58 199.168 41.46C199.568 41.3267 199.861 41.1467 200.048 40.92C200.234 40.6933 200.328 40.4333 200.328 40.14C200.328 39.7667 200.181 39.4733 199.888 39.26C199.594 39.0333 199.208 38.8533 198.728 38.72C198.248 38.5733 197.714 38.44 197.128 38.32C196.554 38.1867 195.974 38.0267 195.388 37.84C194.814 37.6533 194.288 37.4133 193.808 37.12C193.328 36.8267 192.934 36.44 192.628 35.96C192.334 35.48 192.188 34.8667 192.188 34.12C192.188 33.32 192.401 32.5933 192.828 31.94C193.268 31.2733 193.921 30.7467 194.788 30.36C195.668 29.96 196.768 29.76 198.088 29.76C198.968 29.76 199.834 29.8667 200.688 30.08C201.541 30.28 202.294 30.5867 202.948 31L201.948 33.46C201.294 33.0867 200.641 32.8133 199.988 32.64C199.334 32.4533 198.694 32.36 198.068 32.36C197.441 32.36 196.928 32.4333 196.528 32.58C196.128 32.7267 195.841 32.92 195.668 33.16C195.494 33.3867 195.408 33.6533 195.408 33.96C195.408 34.32 195.554 34.6133 195.848 34.84C196.141 35.0533 196.528 35.2267 197.008 35.36C197.488 35.4933 198.014 35.6267 198.588 35.76C199.174 35.8933 199.754 36.0467 200.328 36.22C200.914 36.3933 201.448 36.6267 201.928 36.92C202.408 37.2133 202.794 37.6 203.088 38.08C203.394 38.56 203.548 39.1667 203.548 39.9C203.548 40.6867 203.328 41.4067 202.888 42.06C202.448 42.7133 201.788 43.24 200.908 43.64C200.041 44.04 198.941 44.24 197.608 44.24ZM208.662 40.8L208.482 37.06L215.182 30H218.782L212.742 36.5L210.942 38.42L208.662 40.8ZM205.762 44V30H208.982V44H205.762ZM215.342 44L210.362 37.9L212.482 35.6L219.122 44H215.342ZM223.011 44V38.28L223.751 40.24L217.591 30H221.031L225.751 37.86H223.771L228.511 30H231.691L225.531 40.24L226.251 38.28V44H223.011ZM232.93 44V30H236.17V44H232.93Z" fill="white"/>
<rect x="5" width="17" height="44" fill="#FC490B"/>
<rect x="24" y="14" width="17" height="30" fill="#FC490B"/>
<rect x="43" y="27" width="17" height="17" fill="#FC490B"/>
</svg>
