<svg width="81" height="80" viewBox="0 0 81 80" fill="none" xmlns="http://www.w3.org/2000/svg">
<path d="M25.0368 54.0414V26.0414H30.3968L42.3168 45.8014H39.4768L51.1968 26.0414H56.5168L56.5968 54.0414H50.5168L50.4768 35.3614H51.5968L42.2368 51.0814H39.3168L29.7568 35.3614H31.1168V54.0414H25.0368Z" fill="#3AB561"/>
<path d="M12.0558 75V7.8H38.6478C45.7518 7.8 51.9918 9.24 57.3678 12.12C62.7438 15 66.9038 18.968 69.8478 24.024C72.8558 29.08 74.3598 34.872 74.3598 41.4C74.3598 47.928 72.8558 53.72 69.8478 58.776C66.9038 63.832 62.7438 67.8 57.3678 70.68C51.9918 73.56 45.7518 75 38.6478 75H12.0558ZM16.9518 70.584H38.2638C44.5998 70.584 50.1038 69.336 54.7758 66.84C59.4478 64.344 63.0638 60.92 65.6238 56.568C68.1838 52.152 69.4638 47.096 69.4638 41.4C69.4638 35.704 68.1838 30.68 65.6238 26.328C63.0638 21.912 59.4478 18.456 54.7758 15.96C50.1038 13.464 44.5998 12.216 38.2638 12.216H16.9518V70.584Z" fill="#3AB561"/>
</svg>
