<svg width="98" height="103" viewBox="0 0 98 103" fill="none" xmlns="http://www.w3.org/2000/svg">
<path d="M34.5586 82V21.8H60.8746C67.4106 21.8 73.1439 23.0613 78.0746 25.584C83.0053 28.1067 86.8466 31.604 89.5986 36.076C92.3506 40.548 93.7266 45.8227 93.7266 51.9C93.7266 57.92 92.3506 63.1947 89.5986 67.724C86.8466 72.196 83.0053 75.6933 78.0746 78.216C73.1439 80.7387 67.4106 82 60.8746 82H34.5586ZM45.7386 72.54H60.3586C64.8879 72.54 68.7866 71.68 72.0546 69.96C75.3799 68.24 77.9313 65.832 79.7086 62.736C81.5433 59.64 82.4606 56.028 82.4606 51.9C82.4606 47.7147 81.5433 44.1027 79.7086 41.064C77.9313 37.968 75.3799 35.56 72.0546 33.84C68.7866 32.12 64.8879 31.26 60.3586 31.26H45.7386V72.54Z" fill="white"/>
<path d="M8.51564 82V21.8H17.7176L44.0336 65.746H39.2176L65.1036 21.8H74.3056L74.3916 82H63.8136L63.7276 38.398H65.9636L43.9476 75.12H38.9596L16.5996 38.398H19.1796V82H8.51564Z" fill="#009AFE"/>
</svg>
