<svg width="54" height="23" viewBox="0 0 54 23" fill="none" xmlns="http://www.w3.org/2000/svg">
<path d="M0.24 23V0.599998H5.456L14.736 15.832H11.984L21.008 0.599998H26.224L26.288 23H20.464L20.4 9.464H21.392L14.64 20.792H11.824L4.88 9.464H6.096V23H0.24ZM30.7713 23V0.599998H41.3633C43.8379 0.599998 46.0139 1.05867 47.8913 1.976C49.7686 2.89333 51.2299 4.184 52.2753 5.848C53.3419 7.512 53.8753 9.496 53.8753 11.8C53.8753 14.0827 53.3419 16.0667 52.2753 17.752C51.2299 19.416 49.7686 20.7067 47.8913 21.624C46.0139 22.5413 43.8379 23 41.3633 23H30.7713ZM37.1073 17.944H41.1073C42.3873 17.944 43.4966 17.7093 44.4353 17.24C45.3953 16.7493 46.1419 16.0453 46.6753 15.128C47.2086 14.1893 47.4753 13.08 47.4753 11.8C47.4753 10.4987 47.2086 9.38933 46.6753 8.472C46.1419 7.55467 45.3953 6.86133 44.4353 6.392C43.4966 5.90133 42.3873 5.656 41.1073 5.656H37.1073V17.944Z" fill="black"/>
</svg>
