<svg width="50" height="50" viewBox="0 0 50 50" fill="none" xmlns="http://www.w3.org/2000/svg">
<circle cx="25" cy="25" r="25" fill="#FFEF5C"/>
<path d="M8.2675 32V18H10.4075L16.5275 28.22H15.4075L21.4275 18H23.5675L23.5875 32H21.1275L21.1075 21.86H21.6275L16.5075 30.4H15.3475L10.1475 21.86H10.7475V32H8.2675ZM27.9691 32V18H34.0891C35.6091 18 36.9424 18.2933 38.0891 18.88C39.2357 19.4667 40.1291 20.28 40.7691 21.32C41.4091 22.36 41.7291 23.5867 41.7291 25C41.7291 26.4 41.4091 27.6267 40.7691 28.68C40.1291 29.72 39.2357 30.5333 38.0891 31.12C36.9424 31.7067 35.6091 32 34.0891 32H27.9691ZM30.5691 29.8H33.9691C35.0224 29.8 35.9291 29.6 36.6891 29.2C37.4624 28.8 38.0557 28.24 38.4691 27.52C38.8957 26.8 39.1091 25.96 39.1091 25C39.1091 24.0267 38.8957 23.1867 38.4691 22.48C38.0557 21.76 37.4624 21.2 36.6891 20.8C35.9291 20.4 35.0224 20.2 33.9691 20.2H30.5691V29.8Z" fill="black"/>
</svg>
