<svg width="96" height="96" viewBox="0 0 96 96" fill="none" xmlns="http://www.w3.org/2000/svg">
<circle cx="48" cy="48" r="47.5" stroke="#B4B4B4"/>
<path d="M48.2634 55.692L47.9974 55.532L47.7334 55.694C46.5234 56.43 45.4774 57.444 44.6074 58.724C45.5394 58.888 46.6674 59.002 47.9994 59.002C49.3854 59.002 50.5034 58.892 51.3954 58.732C50.5234 57.448 49.4754 56.432 48.2634 55.694V55.692Z" fill="#FD9103"/>
<path d="M56.3749 48C59.4129 45.484 62.6669 41.324 64.3509 34.536C64.4549 34.118 64.4209 33.678 64.2549 33.28C64.1309 32.984 61.0509 26 48.0029 26C34.9549 26 31.8729 32.984 31.7489 33.28C31.5829 33.678 31.5489 34.118 31.6529 34.536C33.3389 41.324 36.5909 45.484 39.6289 48C36.5909 50.516 33.3369 54.676 31.6529 61.464C31.5489 61.882 31.5829 62.322 31.7489 62.72C31.8729 63.016 34.9529 70 48.0009 70C61.0489 70 64.1289 63.016 64.2529 62.72C64.4189 62.322 64.4529 61.882 64.3489 61.464C62.6629 54.676 59.4129 50.516 56.3749 48ZM55.1509 61.784C53.2749 62.572 50.8769 63 48.0029 63C44.6809 63 42.3009 62.448 40.9309 61.872C39.3269 61.196 39.5729 59.68 39.8009 59.174C41.1749 56.122 43.2189 53.912 45.6589 52.272C47.8629 50.792 48.2309 50.95 50.3409 52.272C52.8209 53.824 54.8029 56.096 56.1769 59.122C56.3989 59.61 56.6249 61.164 55.1509 61.784Z" fill="#FD9103"/>
</svg>
