<svg width="96" height="96" viewBox="0 0 96 96" fill="none" xmlns="http://www.w3.org/2000/svg">
<circle cx="48" cy="48" r="47.5" stroke="#B4B4B4"/>
<g clip-path="url(#clip0_756_839)">
<path d="M46 30V46H24V30C24 26.7 26.7 24 30 24H40C43.3 24 46 26.7 46 30ZM66 50H56C52.7 50 50 52.7 50 56V72H72V56C72 52.7 69.3 50 66 50ZM57.76 43.42L60.58 40.6L56 36.02H62C64.2 36.02 66 37.82 66 40.02V46.02H70V40.02C70 35.6 66.42 32.02 62 32.02H56L60.58 27.44L57.76 24.62L51.18 31.2C49.62 32.76 49.62 35.3 51.18 36.86L57.76 43.44V43.42ZM38.24 52.58L35.42 55.4L40 59.98H34C31.8 59.98 30 58.18 30 55.98V49.98H26V55.98C26 60.4 29.58 63.98 34 63.98H40L35.42 68.56L38.24 71.38L44.82 64.8C46.38 63.24 46.38 60.7 44.82 59.14L38.24 52.56V52.58Z" fill="#FD9103"/>
</g>
<defs>
<clipPath id="clip0_756_839">
<rect width="48" height="48" fill="white" transform="translate(24 24)"/>
</clipPath>
</defs>
</svg>
