<svg width="96" height="96" viewBox="0 0 96 96" fill="none" xmlns="http://www.w3.org/2000/svg">
<circle cx="48" cy="48" r="47.5" stroke="#B4B4B4"/>
<g clip-path="url(#clip0_756_849)">
<path d="M38.374 42.202L40.148 50H36.058L37.832 42.202C37.852 42.112 37.88 41.986 38.102 41.986C38.324 41.986 38.354 42.112 38.374 42.202ZM72 40V56C72 61.514 67.514 66 62 66H34C28.486 66 24 61.514 24 56V40C24 34.486 28.486 30 34 30H62C67.514 30 72 34.486 72 40ZM45.514 55.556L42.272 41.314C41.818 39.322 40.142 37.984 38.102 37.984C36.062 37.984 34.384 39.322 33.932 41.314L30.69 55.556C30.444 56.632 31.12 57.704 32.196 57.948C33.272 58.206 34.344 57.52 34.59 56.442L35.146 53.998H41.058L41.614 56.442C41.824 57.37 42.65 57.998 43.562 57.998C43.71 57.998 43.858 57.982 44.008 57.948C45.086 57.704 45.76 56.632 45.514 55.556Z" fill="#FD9103"/>
</g>
<defs>
<clipPath id="clip0_756_849">
<rect width="48" height="48" fill="white" transform="translate(24 24)"/>
</clipPath>
</defs>
</svg>
