<svg width="96" height="96" viewBox="0 0 96 96" fill="none" xmlns="http://www.w3.org/2000/svg">
<circle cx="48" cy="48" r="47.5" stroke="#B4B4B4"/>
<path d="M48 72C61.2548 72 72 61.2548 72 48C72 34.7452 61.2548 24 48 24C34.7452 24 24 34.7452 24 48C24 61.2548 34.7452 72 48 72Z" fill="#020102"/>
<path d="M59.6797 38.2543C59.6607 38.1613 59.618 38.0748 59.5557 38.0032C59.4934 37.9315 59.4136 37.8772 59.3242 37.8454C58.9872 37.7801 58.6389 37.8046 58.3144 37.9166C58.3144 37.9166 35.886 45.9805 34.6024 46.873C34.3286 47.065 34.2468 47.1788 34.19 47.3068C33.9695 47.9432 34.6593 48.2241 34.6593 48.2241L40.4406 50.1085C40.5364 50.1319 40.6364 50.1319 40.7322 50.1085C42.0477 49.2765 53.9624 41.753 54.6522 41.5006C54.7588 41.4686 54.8406 41.5005 54.8193 41.5788C54.5419 42.5459 44.1917 51.7441 44.1917 51.7441C44.1665 51.7772 44.1451 51.813 44.1277 51.8508L43.5908 57.5859C43.5908 57.5859 43.3633 59.3423 45.1197 57.5859C46.3606 56.345 47.5588 55.3068 48.1597 54.8055C50.1473 56.1779 52.2877 57.6961 53.2086 58.489C53.3643 58.6386 53.5483 58.7556 53.7497 58.8331C53.9512 58.9107 54.1662 58.9472 54.382 58.9406C55.2566 58.9086 55.502 57.945 55.502 57.945C55.502 57.945 59.5908 41.4935 59.726 39.289C59.726 39.0757 59.758 38.9334 59.758 38.7877C59.7601 38.6069 59.7337 38.4269 59.6797 38.2543Z" fill="white"/>
</svg>
